<?xml version="1.0" encoding="utf-8"?>
<!-- Generator: Adobe Illustrator 16.0.0, SVG Export Plug-In . SVG Version: 6.00 Build 0)  -->
<!DOCTYPE svg PUBLIC "-//W3C//DTD SVG 1.1//EN" "http://www.w3.org/Graphics/SVG/1.1/DTD/svg11.dtd">
<svg version="1.1" xmlns="http://www.w3.org/2000/svg" xmlns:xlink="http://www.w3.org/1999/xlink" x="0px" y="0px" width="612px"
	 height="792px" viewBox="0 0 612 792" enable-background="new 0 0 612 792" xml:space="preserve">

<g>
	<path fill="none" stroke="#000000" stroke-width="5" stroke-miterlimit="10" d="M208.842,396c0,0-59.632-143,82.684-161.421
		c0,0,94.947-3.947,85.737,123.684l-11.842,47.369l-22.368-17.105l-7.895,38.158L306,396l-30.053,41.211L265.421,396l-34.21,41.211
		l2.632-56.58L208.842,396z"/>

	<g class>
	<path stroke="#000000" stroke-width="5" stroke-miterlimit="10" d="M362.792,275.239c0,0,34.209-15.66,32.893-32.765
		s15.789-18.421,15.789-18.421l25,25.593c0,0,18.421,17.828,28.947,12.565c0,0,2.631,11.842,18.421-3.947
		c0,0-3.946,28.688-30.263,16.976c0,0-38.157,6.708-30.263,13.288s0,18.421,0,18.421s-13.159-30.263-28.948-27.631l-28.994,0.696"/>
	</g>
	<path stroke="#000000" stroke-width="5" stroke-miterlimit="10" d="M213.598,273.67c0,0-38.966-11.485-37.65-39.104
		c0,0,6.579-13.145-19.737-10.513c0,0-18.421,28.947-30.263,31.579c0,0-25,13.158-35.526,0c0,0,17.105,36.077,35.526,18.039
		c0,0,25.808,1.699,26.062,25.383c0,0,26.398-41.479,56.089-16.792"/>
	<path stroke="#000000" stroke-width="5" stroke-miterlimit="10" d="M237.79,299.053c0,0,22.443-34.211,49.379,7.895
		c0,0,7.896,25-24.689,34.21C262.479,341.158,222,334.579,237.79,299.053z"/>
	<path stroke="#000000" stroke-width="5" stroke-miterlimit="10" d="M306,291.158c0,0,16-14.474,22.579,0
		c0,0,12.946,6.626-11.29,22.392C317.289,313.55,304.474,310.895,306,291.158z"/>

</svg>
